<svg width="48" height="48" fill="none" xmlns="http://www.w3.org/2000/svg"><path fill-rule="evenodd" clip-rule="evenodd" d="M23.778.502V.5h-.006v.002L1.48 11.508c0 26.603 21.924 35.375 22.293 35.522v.003l.003-.002.003.002v-.003c.37-.147 22.293-8.92 22.293-35.522L23.778.502" fill="#E74C3C"/><path fill-rule="evenodd" clip-rule="evenodd" d="M40.363 33.661l-13.346-.9 15.682-3.18c.093-.19.184-.38.275-.573L26.87 31.995l18.288-8.85c.053-.185.104-.37.154-.558L26.537 31.29l20.096-16.971c.01-.156.022-.31.03-.466L26.038 30.687 41.601 8.834l-.304-.15L25.406 30.23l9.52-24.69-.305-.151-9.943 24.553 3.276-27.844-.296-.147-3.756 27.893-3.75-27.847-.296.147 3.27 27.798L13.201 5.43l-.306.15 9.504 24.65L6.533 8.719l-.303.151 15.536 21.817-20.52-16.75c.009.158.02.313.031.47l19.99 16.882-18.662-8.65c.05.189.104.375.156.561l18.173 8.795L4.94 29.028c.091.193.184.385.277.575l15.572 3.159-13.25.893c.12.182.24.363.362.54l12.937-.654-10.75 3.542c.138.165.276.329.415.49l10.577-3.29-8.543 5.472c.15.148.3.296.45.44l8.512-5.253-6.54 7.03c.16.135.32.267.48.397l6.63-6.893-4.587 8.457c.171.124.342.243.509.36l4.764-8.44-2.473 9.915c.188.112.37.217.546.318l2.684-10.04.097 11.46c.198.086.317.134.341.144v.003s.001-.002.003-.002l.003.002v-.003c.02-.008.105-.042.242-.1l.097-11.504 2.697 10.09c.176-.1.358-.206.545-.317l-2.485-9.967 4.792 8.49c.167-.116.337-.234.509-.357l-4.615-8.509 6.675 6.938c.158-.13.318-.26.478-.395l-6.583-7.077 8.572 5.29c.15-.144.3-.29.45-.439l-8.603-5.51 10.654 3.314c.14-.16.278-.323.416-.488L26.968 33.54 40 34.2c.122-.178.242-.358.362-.54" fill="#A34A41"/><path fill-rule="evenodd" clip-rule="evenodd" d="M24.002.002V0h-.006v.002L1 11.355c0 27.442 22.615 36.49 22.996 36.642V48l.003-.001.003.001v-.003c.381-.151 22.996-9.2 22.996-36.642L24.002.002zm0 44.997V45h-.005v-.001C23.666 44.866 4 36.946 4 12.937l19.997-9.935V3l.003.001.002-.001v.002L44 12.937c0 24.009-19.666 31.929-19.998 32.062z" fill="#FBC13D"/><path fill-rule="evenodd" clip-rule="evenodd" d="M29.862 14.734c.932 1.87.073 3.704-.672 4.034-.607.268-1.605.287-1.913-.631-.912-2.713-1.281-5.098-4.076-5.388-1.335-.136-3.635.504-3.016 2.123.256.665 1.2.591 1.2.591s-.735-.463-.06-.591c.675-.13 1.804 1.341 1.013 2.792-1.266 2.32-5.584.874-4.233-3.123.007-.021-.008-.245 0-.266-2.948 1.911-4.954 5.41-4.954 9.232 0 4.28 2.451 7.976 6.003 9.714-.024-.037.09-.216.069-.252-.64-.594-2.905-2.693-3.548-6.768 0 0 1.223 3.542 3.051 5.538-.074-.554-.076-.967.095-1.473-.482-.806-1.472-2.765-1.514-5.297.439 2.231 1.142 3.769 1.846 4.565.176-.302.386-.574.618-.802-.2-.472-.473-1.492-.607-3.678.099.532.374 2.29 1.038 3.325.537-.367 1.137-.507 1.672-.295.674.269-.782 5.069-1.005 5.791a10.386 10.386 0 0 0 5.847-.035c-.259-.836-1.658-5.492-.994-5.756.533-.212 1.132-.072 1.67.294.663-1.036.938-2.792 1.038-3.324-.135 2.184-.408 3.206-.608 3.678.233.228.445.499.62.801.704-.798 1.407-2.334 1.845-4.564-.042 2.529-1.03 4.484-1.512 5.294.17.504.24 1.053.168 1.606 1.824-1.999 2.976-5.668 2.976-5.668-.638 4.045-2.743 6.281-3.4 6.895a.172.172 0 0 1-.01.02c3.442-1.776 5.802-5.412 5.802-9.609a10.81 10.81 0 0 0-4.449-8.773zm-8.241-.965s.487-.514 1.438-.125c-.506.2-1.34.31-1.438.125z" fill="#AB382C"/><path fill-rule="evenodd" clip-rule="evenodd" d="M23.874 17.275l1.175 3.609h3.803l-3.077 2.23 1.176 3.608-3.077-2.229-3.077 2.23 1.175-3.609-3.077-2.23H22.7l1.175-3.61" fill="#3B3B3B"/><path fill-rule="evenodd" clip-rule="evenodd" d="M37 23c0 7.18-5.82 13-13 13-7.178 0-13-5.82-13-13s5.822-13 13-13c7.18 0 13 5.82 13 13" fill="#FBC13D"/><path fill-rule="evenodd" clip-rule="evenodd" d="M36.053 23c0 6.628-5.384 12-12.026 12C17.386 35 12 29.628 12 23c0-6.627 5.386-12 12.027-12 6.642 0 12.026 5.373 12.026 12" fill="#AF4A40"/><path d="M20.934 17.416c0-.336-.12-.616-.36-.84-.24-.24-.52-.36-.84-.36-.32 0-.6.12-.84.36-.24.224-.36.504-.36.84v2.496c0 .336.12.624.36.864.24.224.52.336.84.336.32 0 .6-.112.84-.336.24-.24.36-.528.36-.864v-2.496zm-4.848.96c0-.464.016-.856.048-1.176.032-.336.088-.624.168-.864.08-.24.168-.456.264-.648.112-.192.248-.392.408-.6.32-.416.72-.736 1.2-.96.48-.24 1-.36 1.56-.36s1.08.12 1.56.36c.48.224.88.544 1.2.96.16.208.296.408.408.6.112.192.208.408.288.648.08.24.128.528.144.864.032.32.048.712.048 1.176 0 .512-.008.944-.024 1.296a3.966 3.966 0 0 1-.144.936c-.08.272-.208.52-.384.744-.16.208-.384.432-.672.672.288.224.512.448.672.672.176.224.304.488.384.792.08.304.128.68.144 1.128.016.432.024.968.024 1.608 0 .528-.016.968-.048 1.32a6.56 6.56 0 0 1-.096.888 2.2 2.2 0 0 1-.216.648 3.95 3.95 0 0 1-.312.552c-.272.416-.656.776-1.152 1.08-.496.288-1.104.432-1.824.432s-1.328-.144-1.824-.432c-.496-.304-.88-.664-1.152-1.08a7.315 7.315 0 0 1-.336-.552 2.845 2.845 0 0 1-.192-.648 10.037 10.037 0 0 1-.12-.888 44.71 44.71 0 0 1 0-2.928c.016-.448.064-.824.144-1.128.08-.304.2-.568.36-.792a4.01 4.01 0 0 1 .696-.672 5.67 5.67 0 0 1-.696-.672 2.468 2.468 0 0 1-.36-.744 3.966 3.966 0 0 1-.144-.936 29.291 29.291 0 0 1-.024-1.296zm4.848 5.76c0-.336-.12-.616-.36-.84-.24-.24-.52-.36-.84-.36-.32 0-.6.12-.84.36-.24.224-.36.504-.36.84v3.36c0 .336.12.624.36.864.24.224.52.336.84.336.32 0 .6-.112.84-.336.24-.24.36-.528.36-.864v-3.36zM24.316 17.44c0-.576.096-1.088.288-1.536.208-.448.48-.832.816-1.152.336-.32.72-.56 1.152-.72a3.774 3.774 0 0 1 1.392-.264c.48 0 .936.088 1.368.264.448.16.84.4 1.176.72.336.32.6.704.792 1.152.208.448.312.96.312 1.536v10.032c0 .576-.104 1.088-.312 1.536a3.443 3.443 0 0 1-.792 1.152c-.336.32-.728.568-1.176.744a4.108 4.108 0 0 1-2.76 0 3.655 3.655 0 0 1-1.152-.744 3.755 3.755 0 0 1-.816-1.152c-.192-.448-.288-.96-.288-1.536V17.44zm2.448 10.032c0 .352.112.648.336.888.224.224.512.336.864.336s.64-.112.864-.336c.224-.24.336-.536.336-.888V17.44c0-.352-.112-.64-.336-.864a1.129 1.129 0 0 0-.864-.36c-.352 0-.64.12-.864.36-.224.224-.336.512-.336.864v10.032z" fill="#FBC13D"/></svg>