<svg width="112" height="112" viewBox="0 0 112 112" fill="none" xmlns="http://www.w3.org/2000/svg">
  <circle cx="56" cy="56" r="56" fill="#E8EBEE"/>
  <path fill-rule="evenodd" clip-rule="evenodd" d="M38.077 46h36.448c.705 0 1.275.558 1.275 1.241v2.356l-.066-.057C72.663 53.061 70.76 55 66.506 55H46.165c-4.254 0-5.887-1.939-8.958-5.46l-.407-.467V47.24c0-.683.573-1.241 1.277-1.241zm11.901-6.166v-3.268c0-.423.344-.766.766-.766h10.469c.422 0 .765.343.765.766v3.268a.766.766 0 0 1-.765.766H50.744a.766.766 0 0 1-.766-.766zm16.724.5c.036-.246.076-.49.076-.745v-3.178c0-2.989-2.49-5.411-5.565-5.411H50.744c-3.074 0-5.566 2.422-5.566 5.411v3.178c0 .254.044.5.077.744h-7.197C34.712 40.333 32 42.97 32 46.22v20.893C32 70.363 34.712 73 38.058 73h35.887C77.29 73 80 70.363 80 67.113V46.22c0-3.25-2.71-5.887-6.055-5.887h-7.243z" fill="#fff"/>
</svg>
