<svg width="32" height="32" viewBox="0 0 32 32" fill="none" xmlns="http://www.w3.org/2000/svg">
<circle cx="16" cy="16" r="16" fill="#EBF5FC"/>
<path fill-rule="evenodd" clip-rule="evenodd" d="M15.442 10.737H10.838C10.0696 10.737 9.3969 11.2015 9.18607 12.0855C8.94354 13.0979 8.93247 13.7299 9.18607 14.7876C9.37426 15.575 9.82308 16.1361 10.5914 16.1361H11.3291V14.9214C11.3291 13.6398 12.2559 13.0969 13.1525 13.0969H15.442V10.737ZM13.1203 8.03554C12.0013 8.23429 11.798 8.65041 11.798 9.41774V10.087H14.8311V8.0139C14.3893 8.01742 13.4927 7.96861 13.1203 8.03554ZM12.9 9.47963C12.7037 9.47963 12.5462 9.32113 12.5462 9.1249C12.5462 8.92866 12.7042 8.76916 12.9 8.76916C13.0952 8.76916 13.2532 8.92816 13.2532 9.1249C13.2532 9.32113 13.0952 9.48013 12.9 9.48013V9.47963Z" fill="#3498DB"/>
<path fill-rule="evenodd" clip-rule="evenodd" d="M14.349 13.0977H15.5184C16.2409 13.0977 16.5826 12.7344 16.5826 12.0058V9.47789C16.5826 8.75836 16.2168 8.33469 15.5179 8.12839C15.1063 8.00763 14.7697 8.02172 14.348 8.01367V13.0977" fill="#1378BA"/>
<path fill-rule="evenodd" clip-rule="evenodd" d="M13.2557 16.0435H17.8597C18.6281 16.0435 19.3008 15.5791 19.5116 14.695C19.7542 13.6822 19.7647 13.0497 19.5116 11.993C19.3235 11.2051 18.8746 10.6445 18.1063 10.6445H17.3686V11.8592C17.3686 13.1402 16.4418 13.6837 15.5452 13.6837H13.2557V16.0435ZM15.5774 18.7445C16.6964 18.5463 16.8997 18.1297 16.8997 17.3623V16.6931H13.8666V18.7662C14.3084 18.7627 15.205 18.8115 15.5774 18.745V18.7445ZM15.7988 17.3005C15.9935 17.3005 16.151 17.4589 16.151 17.6557C16.151 17.8519 15.9935 18.0114 15.7988 18.0114C15.6025 18.0114 15.4445 17.8519 15.4445 17.6557C15.4445 17.4595 15.6025 17.2999 15.7982 17.2999L15.7988 17.3005Z" fill="#3498DB"/>
<path fill-rule="evenodd" clip-rule="evenodd" d="M14.3204 13.6836H13.1792C12.4562 13.6836 12.1145 14.0469 12.1145 14.7745V17.3029C12.1145 18.0224 12.4803 18.4461 13.1792 18.6524C13.5903 18.7731 13.8987 18.7596 14.3204 18.7681V13.6836Z" fill="#1378BA"/>
<path d="M18.374 23.9999C20.5971 23.9999 22.3993 22.1977 22.3993 19.9746C22.3993 17.7514 20.5971 15.9492 18.374 15.9492C16.1508 15.9492 14.3486 17.7514 14.3486 19.9746C14.3486 22.1977 16.1508 23.9999 18.374 23.9999Z" fill="white" stroke="#1478BA"/>
<path fill-rule="evenodd" clip-rule="evenodd" d="M17.7964 19.3695H18.2794C18.4646 19.3695 18.6015 19.3207 18.6895 19.2235C18.7786 19.1264 18.8229 18.9931 18.8229 18.824C18.8229 18.7586 18.8128 18.6972 18.7927 18.6394C18.7715 18.5815 18.7403 18.5302 18.6991 18.4859C18.6573 18.4416 18.6045 18.4069 18.5406 18.3812C18.4772 18.3561 18.4017 18.343 18.3152 18.343C18.2548 18.343 18.1944 18.3521 18.137 18.3712C18.0792 18.3898 18.0263 18.4165 17.9811 18.4507C17.9343 18.4849 17.897 18.5262 17.8688 18.5765C17.8402 18.6248 17.8261 18.6811 17.8261 18.744H16.8323C16.8323 18.5614 16.8716 18.3978 16.9501 18.2534C17.0291 18.109 17.1352 17.9868 17.2686 17.8861C17.4024 17.7855 17.5554 17.71 17.73 17.6567C17.9041 17.6028 18.0872 17.5762 18.2799 17.5762C18.5079 17.5762 18.7162 17.6028 18.9049 17.6567C19.0931 17.709 19.2546 17.7875 19.3894 17.8901C19.5243 17.9938 19.6289 18.1216 19.7034 18.2736C19.7779 18.426 19.8156 18.6026 19.8156 18.8029C19.8156 18.901 19.7995 18.9956 19.7683 19.0857C19.7366 19.1763 19.6928 19.2618 19.6355 19.3408C19.5786 19.4213 19.5087 19.4927 19.4262 19.5571C19.3436 19.6226 19.2526 19.6779 19.1519 19.7257C19.3804 19.8082 19.5595 19.9335 19.6893 20.1016C19.8191 20.2691 19.8835 20.4769 19.8835 20.7245C19.8835 20.9258 19.8433 21.1039 19.7613 21.2614C19.6808 21.4184 19.568 21.5512 19.4241 21.6589C19.2807 21.7676 19.1112 21.8501 18.9159 21.9054C18.7197 21.9608 18.5084 21.9895 18.2804 21.9895C18.1607 21.9895 18.0399 21.9784 17.9192 21.9568C17.7984 21.9356 17.6812 21.9029 17.5695 21.8596C17.4573 21.8164 17.3521 21.761 17.254 21.6936C17.1559 21.6252 17.0708 21.5447 16.9989 21.4521C16.9274 21.358 16.8706 21.2523 16.8278 21.1351C16.786 21.0163 16.7649 20.8835 16.7649 20.7366H17.7647C17.7647 20.805 17.7798 20.8689 17.8085 20.9278C17.8376 20.9872 17.8774 21.0385 17.9277 21.0828C17.978 21.127 18.0364 21.1613 18.1028 21.1859C18.1697 21.2111 18.2407 21.2231 18.3152 21.2231C18.4057 21.2231 18.4862 21.2091 18.5587 21.1829C18.6306 21.1562 18.691 21.119 18.7398 21.0722C18.7901 21.0249 18.8269 20.97 18.8525 20.9072C18.8777 20.8443 18.8908 20.7763 18.8908 20.7034C18.8908 20.487 18.8364 20.334 18.7288 20.2435C18.6206 20.1529 18.4711 20.1076 18.2809 20.1076H17.7969V19.368L17.7964 19.3695Z" fill="#FF6545"/>
</svg>
